<?xml version="1.0" standalone="no"?>
<!DOCTYPE svg PUBLIC "-//W3C//DTD SVG 20010904//EN"
 "http://www.w3.org/TR/2001/REC-SVG-20010904/DTD/svg10.dtd">
<svg version="1.0" xmlns="http://www.w3.org/2000/svg"
 width="1280.000000pt" height="1044.000000pt" viewBox="0 0 1280.000000 1044.000000"
 preserveAspectRatio="xMidYMid meet">
<g transform="translate(0.000000,1044.000000) scale(0.100000,-0.100000)"
fill="#000000" stroke="none">
<path d="M1645 10428 c-276 -43 -435 -88 -615 -174 -536 -257 -919 -773 -1000
-1349 -6 -44 -15 -104 -20 -134 -6 -32 -10 -453 -10 -1024 0 -931 1 -976 21
-1116 11 -80 31 -186 44 -236 127 -500 472 -928 933 -1159 50 -25 93 -47 93
-49 1 -1 5 -435 8 -964 l6 -962 780 869 c429 479 788 885 797 903 17 30 18 99
18 1022 0 1071 2 1108 55 1366 114 544 369 1026 755 1422 234 242 483 426 767
570 302 153 547 231 908 290 125 20 171 21 1224 26 l1094 6 -50 60 c-76 92
-232 234 -333 306 -246 174 -492 269 -824 318 -137 21 -162 21 -2365 20 -1306
-1 -2251 -6 -2286 -11z"/>
<path d="M5305 8969 c-477 -60 -922 -278 -1264 -620 -328 -328 -527 -723 -608
-1204 -17 -103 -18 -197 -18 -1575 0 -1378 1 -1472 18 -1575 55 -327 167 -619
334 -868 302 -452 753 -773 1268 -902 268 -68 155 -65 2455 -65 1143 0 2085
-3 2094 -6 8 -3 435 -480 947 -1060 513 -580 936 -1054 941 -1054 4 0 8 512 8
1139 0 939 2 1140 13 1150 8 6 62 35 121 65 575 293 1007 857 1130 1478 58
290 57 272 54 1748 -4 1469 -2 1413 -59 1680 -66 305 -228 638 -431 888 -354
434 -865 714 -1428 782 -106 13 -5473 12 -5575 -1z"/>
</g>
</svg>
